<?xml version="1.0" encoding="utf-8"?>
<!-- Generator: Adobe Illustrator 17.0.2, SVG Export Plug-In . SVG Version: 6.00 Build 0)  -->
<!DOCTYPE svg PUBLIC "-//W3C//DTD SVG 1.1//EN" "http://www.w3.org/Graphics/SVG/1.1/DTD/svg11.dtd">
<svg version="1.1" id="Layer_1" xmlns="http://www.w3.org/2000/svg" xmlns:xlink="http://www.w3.org/1999/xlink" x="0px" y="0px"
	 width="144px" height="144px" viewBox="0 0 144 144" enable-background="new 0 0 144 144" xml:space="preserve">
<polygon fill="#004FB1" points="64.959,0 0,0 0,64.959 22.584,64.959 25.338,69.73 32.48,82.099 39.621,69.73 42.375,64.959 
	64.959,64.959 "/>
<g>
	<path fill="#B2B2B2" d="M8.255,20.355h6.421c7.692,0,11.785,4.164,11.785,12.314c0,8.291-4.94,12.313-11.785,12.313H8.255V20.355z
		 M12.771,41.524h1.517c5.081,0,7.374-3.457,7.374-8.856s-2.293-8.856-7.374-8.856h-1.517V41.524z"/>
	<path fill="#B2B2B2" d="M42.557,24.801h-0.071l-3.881,20.182h-5.328l-4.975-24.627h4.234l3.457,18.982h0.071l3.705-18.982h5.504
		l3.669,18.982h0.071l3.599-18.982h4.092l-5.081,24.627h-5.398L42.557,24.801z"/>
</g>
</svg>
