<?xml version="1.0" encoding="utf-8"?>
<!-- Generator: Adobe Illustrator 17.0.2, SVG Export Plug-In . SVG Version: 6.00 Build 0)  -->
<!DOCTYPE svg PUBLIC "-//W3C//DTD SVG 1.1//EN" "http://www.w3.org/Graphics/SVG/1.1/DTD/svg11.dtd">
<svg version="1.1" id="Layer_1" xmlns="http://www.w3.org/2000/svg" xmlns:xlink="http://www.w3.org/1999/xlink" x="0px" y="0px"
	 width="86.847px" height="91.737px" viewBox="0 0 86.847 91.737" enable-background="new 0 0 86.847 91.737" xml:space="preserve">
<polygon fill="#1C53A5" points="0,0 0,71.616 31.806,71.616 37.615,81.676 43.423,91.737 49.232,81.676 55.04,71.616 86.847,71.616 
	86.847,0 "/>
<g>
	<path fill="#FFFFFF" d="M9.444,18.575h11.648c7.374,0,14.653,4.321,14.653,16.672c0,11.319-7.374,16.109-15.639,16.109H9.444
		V18.575z M17.146,45.626h2.443c5.588,0,8.077-4.414,8.077-10.379c0-6.763-2.582-10.943-8.548-10.943h-1.972V45.626z"/>
	<path fill="#FFFFFF" d="M57.725,25.901H57.63l-4.085,25.455h-9.017l-6.576-32.781h7.421l3.944,23.295h0.095l3.897-23.295h9.017
		l3.992,23.295h0.095l4.227-23.295h6.762L70.97,51.356h-9.017L57.725,25.901z"/>
</g>
</svg>
